<svg width="56" height="56" viewBox="0 0 56 56" fill="none" xmlns="http://www.w3.org/2000/svg">
<path d="M37.2758 51.7832C31.8043 41.5452 21.0267 34.5615 8.64867 34.5526C6.74413 34.5497 4.87502 34.715 3.05906 35.031C2.23229 35.1757 1.41439 35.3499 0.611226 35.5566C0.375008 34.7623 0.171266 33.9532 0.00295582 33.1323C0.803154 32.9285 1.61517 32.7513 2.43899 32.6037C4.45278 32.2405 6.52859 32.0544 8.64867 32.0544C9.04138 32.0544 9.4341 32.0633 9.82387 32.0751V27.3385C9.82387 26.5087 9.21856 25.7971 8.40063 25.679C3.64962 24.988 0 20.8863 0 15.9312V7.25543C5.42424 7.25543 9.82387 11.6642 9.82387 17.1036V22.8205C9.82387 23.6119 10.4646 24.2527 11.253 24.2527C12.0414 24.2527 12.6821 23.6119 12.6821 22.8205V10.2143C12.6821 4.57414 17.2442 0 22.8722 0V15.5621C22.8722 20.7209 19.0601 24.985 14.1054 25.679C13.2845 25.7941 12.6821 26.5087 12.6821 27.3385V32.2848C24.3574 33.6431 34.2964 40.7863 39.5642 50.7733C39.951 51.5085 40.3142 52.2586 40.6478 53.0234C39.9067 53.3955 39.1478 53.7321 38.3712 54.0363C38.0346 53.2685 37.6685 52.5185 37.2758 51.7832Z" fill="url(#paint0_linear_190_1155)"/>
<path d="M3.97443 37.5558C5.49348 37.3168 7.05379 37.1928 8.64062 37.1926C19.8461 37.1988 29.6253 43.4295 34.7216 52.6129C35.1321 53.3541 35.5159 54.1131 35.8614 54.8897C35.0523 55.123 34.2285 55.3208 33.3899 55.4832C33.0208 54.6859 32.6104 53.9123 32.1645 53.1622C27.4017 45.1095 18.6408 39.6967 8.64276 39.6908C7.44689 39.6908 6.27168 39.7646 5.11715 39.9152C4.24608 40.0274 3.38683 40.1839 2.53939 40.3759C2.15552 39.6199 1.8012 38.8492 1.48525 38.0578C2.30316 37.857 3.13288 37.6887 3.97443 37.5558Z" fill="url(#paint1_linear_190_1155)"/>
<path d="M29.0287 53.4811C24.6291 46.8842 17.1349 42.5315 8.64276 42.5256C8.02562 42.5256 7.41146 42.5493 6.80319 42.5935C5.86421 42.6615 4.94 42.7855 4.03349 42.9597C4.54136 43.7422 5.08763 44.4982 5.66636 45.2246C6.63784 45.0917 7.62996 45.0238 8.63981 45.0238H8.77564C15.7087 45.0711 21.8918 48.343 25.9046 53.4191C26.5484 54.2341 27.136 55.0964 27.6615 56H27.9627C28.8013 56 29.631 55.9646 30.449 55.8937C30.0208 55.061 29.5454 54.2548 29.0287 53.4811Z" fill="url(#paint2_linear_190_1155)"/>
<path d="M24.0031 55.7224C22.5857 55.5246 21.1979 55.2204 19.8544 54.8188L19.8485 54.8159C17.5365 52.6927 14.6251 51.2162 11.4006 50.6699C10.2461 49.8431 9.15654 48.9306 8.13783 47.9443C8.30318 47.9384 8.47149 47.9384 8.63685 47.9384C9.93016 47.9414 11.191 48.0683 12.4105 48.3164C15.6763 48.9749 18.6408 50.4721 21.0769 52.5716C22.1664 53.5077 23.1468 54.5649 24.0031 55.7224Z" fill="url(#paint3_linear_190_1155)"/>
<path d="M41.7108 49.158L41.7116 49.1595L41.7079 49.1609L41.7108 49.158Z" fill="url(#paint4_linear_190_1155)"/>
<path d="M41.7116 49.1595C42.1238 49.0065 42.5418 48.8653 42.9657 48.7416C44.5041 48.2869 46.1193 48.024 47.7876 47.9768C46.6272 49.0989 45.3723 50.1236 44.0346 51.0361C43.6272 51.1424 43.2256 51.2694 42.8329 51.4081C42.5346 50.7555 42.2157 50.1088 41.8762 49.471C41.8233 49.3681 41.7675 49.2653 41.7116 49.1595Z" fill="url(#paint5_linear_190_1155)"/>
<path d="M52.013 42.8239C51.4993 43.6241 50.9471 44.3949 50.3565 45.139L50.3536 45.1419C49.6981 45.0799 49.0337 45.0504 48.3605 45.0504C47.9471 45.0504 47.5337 45.0622 47.1262 45.0858C44.6931 45.2158 42.3604 45.7503 40.199 46.6155C39.7384 45.9038 39.2512 45.204 38.7374 44.5189C41.6961 43.2491 44.95 42.5492 48.3634 42.5492C48.6351 42.5492 48.9067 42.5552 49.1754 42.564C50.1351 42.5965 51.0829 42.6821 52.013 42.8239Z" fill="url(#paint6_linear_190_1155)"/>
<path d="M54.5495 37.8688C53.7227 37.6916 52.8812 37.5499 52.0308 37.4465C50.829 37.2989 49.6065 37.2192 48.3664 37.2192C43.6036 37.2162 39.0976 38.3413 35.0966 40.3375C35.1409 40.3818 35.1911 40.4261 35.2354 40.4733C35.8082 41.0491 36.3574 41.6427 36.8889 42.2481C40.3821 40.6269 44.2709 39.7174 48.3634 39.7203C49.2138 39.7203 50.0524 39.7587 50.8851 39.8355C51.7709 39.9182 52.642 40.0422 53.5012 40.2076C53.8851 39.4457 54.2335 38.6661 54.5495 37.8688Z" fill="url(#paint7_linear_190_1155)"/>
<path d="M30.9273 36.7467C36.0651 33.776 42.0238 32.0751 48.3693 32.078C50.1292 32.078 51.8595 32.2109 53.5485 32.4649C54.3753 32.586 55.1932 32.7395 55.9993 32.9226C55.8369 33.7435 55.639 34.5526 55.4087 35.3499C54.5997 35.1698 53.7758 35.0192 52.9432 34.9011C51.4491 34.6885 49.9225 34.5762 48.3693 34.5762C42.827 34.5733 37.6065 35.97 33.0356 38.4299C32.3505 37.8422 31.6478 37.2812 30.9273 36.7467Z" fill="url(#paint8_linear_190_1155)"/>
<path d="M32.8053 15.2904C33.2039 15.9844 33.9421 16.4096 34.7393 16.4096H39.3752C40.1724 16.4096 40.9106 15.9814 41.3092 15.2904L43.6272 11.2656C44.0258 10.5716 44.0258 9.7182 43.6272 9.02426L41.3092 4.99936C40.9106 4.30542 40.1724 3.8802 39.3752 3.8802H34.7393C33.9421 3.8802 33.2039 4.30837 32.8053 4.99936L30.4873 9.02426C30.0887 9.7182 30.0887 10.5716 30.4873 11.2656L32.8053 15.2904Z" fill="url(#paint9_linear_190_1155)"/>
<path d="M34.7393 30.3801C33.9421 30.3801 33.2039 29.9549 32.8053 29.2609L30.4873 25.236C30.0887 24.5421 30.0887 23.6887 30.4873 22.9947L32.8053 18.9698C33.2039 18.2788 33.9421 17.8507 34.7393 17.8507H39.3752C40.1724 17.8507 40.9106 18.2759 41.3092 18.9698L43.6272 22.9947C44.0258 23.6887 44.0258 24.5421 43.6272 25.236L41.3092 29.2609C40.9106 29.9519 40.1724 30.3801 39.3752 30.3801H34.7393Z" fill="url(#paint10_linear_190_1155)"/>
<path fill-rule="evenodd" clip-rule="evenodd" d="M53.3831 11.9123C52.9845 11.2183 52.2463 10.7931 51.4491 10.7931H46.8132C46.016 10.7931 45.2778 11.2213 44.8792 11.9123L42.5612 15.9371C42.1626 16.6311 42.1626 17.4845 42.5612 18.1784L44.8792 22.2033C45.2778 22.8973 46.016 23.3225 46.8132 23.3225H51.4491C52.2463 23.3225 52.9845 22.8943 53.3831 22.2033L55.701 18.1784C56.0997 17.4845 56.0997 16.6311 55.701 15.9371L53.3831 11.9123ZM53.5544 17.4491L51.6794 20.7062C51.5376 20.9542 51.2719 21.1078 50.9855 21.1078L47.2532 21.0989C46.9697 21.0989 46.7069 20.9454 46.5622 20.6973L44.7049 17.4727C44.5632 17.2246 44.5632 16.9205 44.7049 16.6724L46.5829 13.4153C46.7246 13.1673 46.9904 13.0137 47.2738 13.0137H50.9884C51.2719 13.0137 51.5376 13.1643 51.6794 13.4124L53.5544 16.6488C53.6991 16.8969 53.6991 17.204 53.5544 17.452V17.4491Z" fill="url(#paint11_linear_190_1155)"/>
<defs>
<linearGradient id="paint0_linear_190_1155" x1="0" y1="0" x2="62.7199" y2="47.2161" gradientUnits="userSpaceOnUse">
<stop stop-color="#49AF4C"/>
<stop offset="1" stop-color="#55C595"/>
</linearGradient>
<linearGradient id="paint1_linear_190_1155" x1="0" y1="0" x2="62.7199" y2="47.2161" gradientUnits="userSpaceOnUse">
<stop stop-color="#49AF4C"/>
<stop offset="1" stop-color="#55C595"/>
</linearGradient>
<linearGradient id="paint2_linear_190_1155" x1="0" y1="0" x2="62.7199" y2="47.2161" gradientUnits="userSpaceOnUse">
<stop stop-color="#49AF4C"/>
<stop offset="1" stop-color="#55C595"/>
</linearGradient>
<linearGradient id="paint3_linear_190_1155" x1="0" y1="0" x2="62.7199" y2="47.2161" gradientUnits="userSpaceOnUse">
<stop stop-color="#49AF4C"/>
<stop offset="1" stop-color="#55C595"/>
</linearGradient>
<linearGradient id="paint4_linear_190_1155" x1="0" y1="0" x2="62.7199" y2="47.2161" gradientUnits="userSpaceOnUse">
<stop stop-color="#49AF4C"/>
<stop offset="1" stop-color="#55C595"/>
</linearGradient>
<linearGradient id="paint5_linear_190_1155" x1="0" y1="0" x2="62.7199" y2="47.2161" gradientUnits="userSpaceOnUse">
<stop stop-color="#49AF4C"/>
<stop offset="1" stop-color="#55C595"/>
</linearGradient>
<linearGradient id="paint6_linear_190_1155" x1="0" y1="0" x2="62.7199" y2="47.2161" gradientUnits="userSpaceOnUse">
<stop stop-color="#49AF4C"/>
<stop offset="1" stop-color="#55C595"/>
</linearGradient>
<linearGradient id="paint7_linear_190_1155" x1="0" y1="0" x2="62.7199" y2="47.2161" gradientUnits="userSpaceOnUse">
<stop stop-color="#49AF4C"/>
<stop offset="1" stop-color="#55C595"/>
</linearGradient>
<linearGradient id="paint8_linear_190_1155" x1="0" y1="0" x2="62.7199" y2="47.2161" gradientUnits="userSpaceOnUse">
<stop stop-color="#49AF4C"/>
<stop offset="1" stop-color="#55C595"/>
</linearGradient>
<linearGradient id="paint9_linear_190_1155" x1="0" y1="0" x2="62.7199" y2="47.2161" gradientUnits="userSpaceOnUse">
<stop stop-color="#49AF4C"/>
<stop offset="1" stop-color="#55C595"/>
</linearGradient>
<linearGradient id="paint10_linear_190_1155" x1="0" y1="0" x2="62.7199" y2="47.2161" gradientUnits="userSpaceOnUse">
<stop stop-color="#49AF4C"/>
<stop offset="1" stop-color="#55C595"/>
</linearGradient>
<linearGradient id="paint11_linear_190_1155" x1="0" y1="0" x2="62.7199" y2="47.2161" gradientUnits="userSpaceOnUse">
<stop stop-color="#49AF4C"/>
<stop offset="1" stop-color="#55C595"/>
</linearGradient>
</defs>
</svg>
